HIERARCHY
ROOT Hips
{
	OFFSET 0.000000 0.000000 0.000000
	CHANNELS 6 Xposition Yposition Zposition Xrotation Yrotation Zrotation
	JOINT LeftUpLeg_virtual
	{
		OFFSET 0.000000 0.000000 0.000000
		CHANNELS 3 Xrotation Yrotation Zrotation
		JOINT LeftUpLeg
		{
			OFFSET 11.394100 -6.187798 -0.413800
			CHANNELS 3 Xrotation Yrotation Zrotation
			JOINT LeftLeg
			{
				OFFSET 0.430247 -32.302673 3.732800
				CHANNELS 3 Xrotation Yrotation Zrotation
				JOINT LeftFoot
				{
					OFFSET -0.430247 -48.264931 -6.423300
					CHANNELS 3 Xrotation Yrotation Zrotation
					JOINT LeftToeBase
					{
						OFFSET 4.230900 -16.068199 23.438400
						CHANNELS 3 Xrotation Yrotation Zrotation
						JOINT LeftToe_End
						{
							OFFSET 4.510700 0.695400 19.974600
							CHANNELS 3 Xrotation Yrotation Zrotation
							End Site
							{
								OFFSET 0 0 0
							}
						}
					}
				}
			}
		}
	}
	JOINT RightUpLeg_virtual
	{
		OFFSET 0.000000 0.000000 0.000000
		CHANNELS 3 Xrotation Yrotation Zrotation
		JOINT RightUpLeg
		{
			OFFSET -11.333700 -6.187798 -0.413800
			CHANNELS 3 Xrotation Yrotation Zrotation
			JOINT RightLeg
			{
				OFFSET -0.430392 -32.302628 3.733000
				CHANNELS 3 Xrotation Yrotation Zrotation
				JOINT RightFoot
				{
					OFFSET 0.430392 -48.264973 -6.423500
					CHANNELS 3 Xrotation Yrotation Zrotation
					JOINT RightToeBase
					{
						OFFSET -4.230900 -16.068199 23.438400
						CHANNELS 3 Xrotation Yrotation Zrotation
						JOINT RightToe_End
						{
							OFFSET -4.510700 0.695400 19.974600
							CHANNELS 3 Xrotation Yrotation Zrotation
							End Site
							{
								OFFSET 0 0 0
							}
						}
					}
				}
			}
		}
	}
	JOINT Spine_virtual
	{
		OFFSET 0.000000 0.000000 0.000000
		CHANNELS 3 Xrotation Yrotation Zrotation
		JOINT Spine
		{
			OFFSET -0.002400 12.777504 0.315300
			CHANNELS 3 Xrotation Yrotation Zrotation
			JOINT Spine1
			{
				OFFSET -0.002067 5.816869 0.032633
				CHANNELS 3 Xrotation Yrotation Zrotation
				JOINT Spine1_split
				{
					OFFSET -0.002067 5.816869 0.032633
					CHANNELS 3 Xrotation Yrotation Zrotation
					JOINT Spine2
					{
						OFFSET -0.002067 5.816869 0.032633
						CHANNELS 3 Xrotation Yrotation Zrotation
						JOINT Neck_virtual
						{
							OFFSET 0.000000 0.000000 0.000000
							CHANNELS 3 Xrotation Yrotation Zrotation
							JOINT Neck
							{
								OFFSET -0.003700 21.199493 -0.826900
								CHANNELS 3 Xrotation Yrotation Zrotation
								JOINT Head
								{
									OFFSET 0.000000 20.442200 4.834800
									CHANNELS 3 Xrotation Yrotation Zrotation
									JOINT HeadTop_End
									{
										OFFSET 0.000000 34.668396 4.968400
										CHANNELS 3 Xrotation Yrotation Zrotation
										End Site
										{
											OFFSET 0 0 0
										}
									}
								}
							}
						}
						JOINT LeftShoulder_virtual
						{
							OFFSET 0.000000 0.000000 0.000000
							CHANNELS 3 Xrotation Yrotation Zrotation
							JOINT LeftShoulder
							{
								OFFSET 3.288150 8.794197 -1.372250
								CHANNELS 3 Xrotation Yrotation Zrotation
								JOINT LeftShoulder_split
								{
									OFFSET 3.288150 8.794197 -1.372250
									CHANNELS 3 Xrotation Yrotation Zrotation
									JOINT LeftArm
									{
										OFFSET 11.953299 -2.279007 -0.146200
										CHANNELS 3 Xrotation Yrotation Zrotation
										JOINT LeftForeArm
										{
											OFFSET 18.448900 0.000000 0.000000
											CHANNELS 3 Xrotation Yrotation Zrotation
											JOINT LeftHand
											{
												OFFSET 29.527798 0.000000 0.000000
												CHANNELS 3 Xrotation Yrotation Zrotation
												End Site
												{
													OFFSET 0 0 0
												}
											}
										}
									}
								}
							}
						}
						JOINT RightShoulder_virtual
						{
							OFFSET 0.000000 0.000000 0.000000
							CHANNELS 3 Xrotation Yrotation Zrotation
							JOINT RightShoulder
							{
								OFFSET -3.249400 8.794197 -1.372250
								CHANNELS 3 Xrotation Yrotation Zrotation
								JOINT RightShoulder_split
								{
									OFFSET -3.249400 8.794197 -1.372250
									CHANNELS 3 Xrotation Yrotation Zrotation
									JOINT RightArm
									{
										OFFSET -11.953299 -2.279007 -0.146200
										CHANNELS 3 Xrotation Yrotation Zrotation
										JOINT RightForeArm
										{
											OFFSET -18.448900 0.000000 0.000000
											CHANNELS 3 Xrotation Yrotation Zrotation
											JOINT RightHand
											{
												OFFSET -29.527802 0.000000 0.000000
												CHANNELS 3 Xrotation Yrotation Zrotation
												End Site
												{
													OFFSET 0 0 0
												}
											}
										}
									}
								}
							}
						}
					}
				}
			}
		}
	}
}
MOTION
Frames: 8
Frame Time: 0.03333333
11.213383 150.336823 -15.512882 0.000000 0.000000 0.000000 -90.608866 -5.863977 -1.100663 4.658160 31.754499 8.198318 0.363599 -18.163998 -7.490096 20.257767 32.118029 -12.362239 11.151936 -0.161774 9.092546 0.000000 0.000000 0.000000 -88.660862 -2.730418 1.442672 -0.252179 -11.388751 -7.416430 -1.284307 9.920961 -11.636243 27.050293 -27.638603 22.745848 4.204739 -3.202299 -47.408227 0.000000 0.000000 0.000000 -92.635479 2.950262 5.664391 0.516817 -2.302725 -0.369292 5.352618 -5.546313 2.327346 0.155660 0.769839 -0.159930 0.000000 0.000000 0.000000 3.955536 -2.860974 1.093079 -25.806039 -0.790026 -3.365724 1.301106 -59.794550 21.136043 0.000000 0.000000 0.000000 3.335485 -4.574334 0.192210 -0.876804 -0.406505 -8.022533 3.417937 5.678050 -5.012424 43.997309 -23.500982 -43.804202 17.003831 -70.950304 12.187471 0.000000 0.000000 0.000000 6.332809 -3.137541 1.541268 -3.809846 -2.084510 15.777727 7.826675 5.069847 0.463886 43.704639 37.305855 34.219699 -75.458653 88.752748 66.434047 0.000000 0.000000 0.000000 
11.209171 150.356949 -15.457611 0.000000 0.000000 0.000000 -90.612739 -5.739966 -0.893957 4.719011 31.549733 8.157128 0.305499 -18.154216 -7.500404 20.239148 32.275120 -12.228125 11.268310 -0.143235 8.979305 0.000000 0.000000 0.000000 -88.717751 -2.806034 1.478707 -0.412920 -11.366659 -7.413130 -0.966338 10.090638 -11.692792 26.883437 -27.597902 22.642634 4.395144 -3.266861 -47.446182 0.000000 0.000000 0.000000 -92.751175 2.706754 5.694669 0.446148 -2.403418 -0.377036 5.356817 -5.384788 2.426202 0.063364 0.771874 -0.174172 0.000000 0.000000 0.000000 4.020254 -2.692486 1.074971 -25.929546 -0.919880 -3.303500 1.232506 -60.144822 20.908047 0.000000 0.000000 0.000000 3.564520 -4.424414 0.333208 -0.971613 -0.802413 -8.011530 3.691908 6.050284 -4.952170 43.739855 -23.279931 -43.815011 17.076800 -70.190849 12.129641 0.000000 0.000000 0.000000 6.529421 -2.962580 1.525496 -3.831803 -2.150779 15.329386 8.312273 5.768164 0.007747 41.811474 38.237786 33.973371 -112.664995 89.041816 103.749931 0.000000 0.000000 0.000000 
11.192281 150.400299 -15.362461 0.000000 0.000000 0.000000 -90.543699 -5.716241 -0.681195 4.755480 31.330088 8.114097 0.182934 -18.068263 -7.543178 20.253131 32.510372 -12.181919 11.338947 -0.126600 8.821673 0.000000 0.000000 0.000000 -88.614745 -2.878643 1.592690 -0.773989 -11.283707 -7.500078 -0.547696 10.396625 -11.778997 26.857009 -27.378735 22.590453 4.372274 -3.303534 -47.684139 0.000000 0.000000 0.000000 -92.670688 2.531615 5.838834 0.408397 -2.554972 -0.540672 5.387812 -5.065920 2.480466 0.013300 0.770583 -0.175282 0.000000 0.000000 0.000000 4.245006 -2.366573 1.098407 -25.757835 -0.924718 -3.443143 0.065552 -60.601017 20.238593 0.000000 0.000000 0.000000 3.794638 -4.111392 0.474433 -1.015642 -1.288205 -7.909328 3.644972 6.101104 -5.207555 43.140629 -22.607178 -43.820636 16.535866 -70.198027 11.783577 0.000000 0.000000 0.000000 6.727540 -2.706890 1.457582 -3.863516 -2.322978 14.715344 9.001885 5.890350 -0.013922 37.790873 39.698067 34.714460 -174.649153 88.797152 165.863754 0.000000 0.000000 0.000000 
11.171903 150.463593 -15.286324 0.000000 0.000000 0.000000 -90.428938 -5.874583 -0.555623 4.740694 31.104518 8.074561 0.063515 -17.986407 -7.603032 20.484263 32.701143 -12.338308 11.291565 -0.114508 8.671815 0.000000 0.000000 0.000000 -88.404409 -2.971712 1.769068 -1.277827 -11.257168 -7.651198 -0.061020 10.663026 -11.886833 26.933507 -27.077252 22.506595 4.122605 -3.312220 -48.072845 0.000000 0.000000 0.000000 -92.368480 2.450797 6.071111 0.517611 -2.717429 -0.862013 5.508687 -4.593479 2.486586 0.020672 0.713374 -0.182873 0.000000 0.000000 0.000000 4.639811 -1.888029 1.152902 -25.299743 -0.928260 -3.608724 -2.005500 -61.164358 19.293567 0.000000 0.000000 0.000000 4.041190 -3.618779 0.596111 -0.985427 -1.786410 -7.695833 3.433563 5.724876 -5.581353 42.195587 -21.534774 -43.697057 15.273614 -70.865733 11.022620 0.000000 0.000000 0.000000 6.945668 -2.338370 1.367038 -3.921233 -2.480896 14.104499 9.784497 5.412265 0.348760 31.705325 41.316128 36.920827 154.643570 87.540663 -163.266328 0.000000 0.000000 0.000000 
11.151144 150.556427 -15.200588 0.000000 0.000000 0.000000 -90.261756 -6.178641 -0.490881 4.686364 30.912589 8.030637 -0.028843 -17.916942 -7.658036 20.924518 32.800669 -12.629629 11.176128 -0.108015 8.574053 0.000000 0.000000 0.000000 -88.164778 -3.174311 1.910106 -1.868745 -11.400009 -7.819907 0.292643 10.703149 -11.990833 27.010526 -26.844624 22.284667 3.940424 -3.405441 -48.534235 0.000000 0.000000 0.000000 -91.927967 2.408720 6.295322 0.865824 -2.816951 -1.316144 5.795446 -3.953472 2.465648 0.051438 0.617730 -0.187811 0.000000 0.000000 0.000000 5.171788 -1.246688 1.229059 -24.638815 -1.112953 -3.601927 -4.511461 -61.879970 18.329528 0.000000 0.000000 0.000000 4.347241 -2.939980 0.680640 -0.864976 -2.196785 -7.373336 3.212376 4.714420 -5.855751 41.000219 -20.285078 -43.292331 13.219385 -71.833987 9.687205 0.000000 0.000000 0.000000 7.233051 -1.813371 1.283040 -3.985559 -2.503697 13.678427 10.295914 4.735017 0.742119 23.788461 42.464895 40.795566 145.329883 85.689429 -153.762148 0.000000 0.000000 0.000000 
11.144867 150.688904 -15.122810 0.000000 0.000000 0.000000 -90.007864 -6.546670 -0.461186 4.615997 30.759672 7.986907 -0.109458 -17.825067 -7.673112 21.398657 32.814124 -12.905871 11.106822 -0.095840 8.522188 0.000000 0.000000 0.000000 -87.891981 -3.487893 1.975180 -2.501492 -11.713232 -7.976470 0.438110 10.521795 -12.065393 26.880730 -26.730053 21.868871 4.063477 -3.665384 -48.994296 0.000000 0.000000 0.000000 -91.423516 2.351305 6.444747 1.521782 -2.796119 -1.830078 6.297604 -3.134343 2.428423 0.108624 0.537841 -0.199593 0.000000 0.000000 0.000000 5.816161 -0.451905 1.299498 -23.806025 -1.654562 -3.303462 -6.834197 -62.916820 17.600489 0.000000 0.000000 0.000000 4.769542 -2.094771 0.716526 -0.635791 -2.409462 -6.960040 3.116404 3.319855 -5.782137 39.564800 -19.426439 -42.436560 10.312209 -72.766780 7.628666 0.000000 0.000000 0.000000 7.648113 -1.093835 1.206067 -4.055425 -2.209270 13.488450 10.561418 4.286345 1.087426 14.776011 42.592223 46.007659 143.351669 83.484610 -151.596199 0.000000 0.000000 0.000000 
11.148125 150.851013 -15.109303 0.000000 0.000000 0.000000 -89.690431 -6.859821 -0.438888 4.546349 30.601986 7.950231 -0.232753 -17.759200 -7.638615 21.732487 32.722323 -13.086518 11.121320 -0.075195 8.521567 0.000000 0.000000 0.000000 -87.570313 -3.794969 2.022275 -3.075427 -12.083998 -8.109865 0.496241 10.258905 -12.093973 26.498142 -26.677257 21.237775 4.587207 -4.072859 -49.399531 0.000000 0.000000 0.000000 -90.913800 2.262281 6.503439 2.450405 -2.629667 -2.339601 7.012689 -2.190454 2.380545 0.132344 0.487029 -0.192124 0.000000 0.000000 0.000000 6.555211 0.453996 1.322433 -22.890086 -2.518171 -2.735746 -8.316838 -64.329262 17.444460 0.000000 0.000000 0.000000 5.358745 -1.130358 0.692129 -0.296869 -2.262372 -6.468154 3.310238 1.771482 -5.584271 37.788722 -19.545177 -40.986647 6.753138 -73.349074 4.952502 0.000000 0.000000 0.000000 8.242026 -0.216804 1.097493 -4.129349 -1.538578 13.475005 11.004919 4.293437 1.426980 5.362408 41.315548 51.848878 145.662308 80.941799 -153.700963 0.000000 0.000000 0.000000 
11.166834 151.012512 -15.177048 0.000000 0.000000 0.000000 -89.312100 -7.047563 -0.423089 4.470050 30.412691 7.934629 -0.443646 -17.735609 -7.564543 21.759897 32.545001 -13.078837 11.259836 -0.054085 8.542325 0.000000 0.000000 0.000000 -87.237177 -3.998802 2.049224 -3.517077 -12.366334 -8.194588 0.538057 10.042215 -12.056808 26.047775 -26.565975 20.541104 5.329267 -4.503384 -49.736789 0.000000 0.000000 0.000000 -90.468868 2.129958 6.411804 3.535033 -2.305936 -2.778465 7.926866 -1.197538 2.307593 0.113201 0.517873 -0.164090 0.000000 0.000000 0.000000 7.384661 1.403056 1.272101 -21.941132 -3.636298 -2.041459 -8.667800 -65.787371 17.886331 0.000000 0.000000 0.000000 6.156042 -0.140809 0.593504 0.127110 -1.627188 -5.921634 3.727404 0.284545 -5.252336 35.687602 -21.026456 -38.839492 2.791442 -73.173777 1.864466 0.000000 0.000000 0.000000 9.027117 0.730212 0.929822 -4.156509 -0.463367 13.540456 11.395597 4.549983 2.023911 -3.100495 38.724898 57.208940 150.406503 78.112468 -158.227957 0.000000 0.000000 0.000000 
